<?xml version="1.0" standalone="no"?>
<!DOCTYPE svg PUBLIC "-//W3C//DTD SVG 20010904//EN"
 "http://www.w3.org/TR/2001/REC-SVG-20010904/DTD/svg10.dtd">
<svg version="1.0" xmlns="http://www.w3.org/2000/svg"
 width="701.000000pt" height="701.000000pt" viewBox="0 0 701.000000 701.000000"
 preserveAspectRatio="xMidYMid meet">
<metadata>
Created by potrace 1.14, written by Peter Selinger 2001-2017
</metadata>
<g transform="translate(0.000000,701.000000) scale(0.100000,-0.100000)"
fill="#000000" stroke="none">
<path d="M3275 6375 c-264 -44 -510 -228 -664 -497 -42 -75 -95 -201 -105
-253 -57 -296 -26 -575 106 -970 70 -210 142 -350 223 -436 l35 -37 -23 -15
c-41 -27 -112 -105 -142 -156 -16 -28 -33 -51 -36 -51 -3 0 -6 21 -8 48 -6
122 -64 309 -137 439 -73 132 -197 260 -323 337 -223 134 -464 147 -741 38
-36 -14 -67 -28 -70 -31 -3 -3 -25 -20 -49 -36 -92 -62 -224 -213 -279 -320
-94 -184 -116 -267 -116 -440 1 -326 78 -569 276 -865 140 -212 259 -351 368
-433 l34 -26 2 -148 c1 -155 4 -180 35 -330 38 -188 155 -471 265 -639 39 -60
126 -142 160 -150 13 -3 24 -10 24 -14 0 -8 -40 -26 -83 -36 -35 -8 -42 -21
-28 -47 23 -41 140 -100 183 -92 70 14 82 40 43 90 -14 19 -30 35 -35 35 -5 0
-14 9 -20 20 -10 19 -8 20 41 16 167 -13 498 163 779 414 l75 67 0 -171 c0
-328 13 -394 97 -505 15 -19 16 -26 6 -32 -15 -9 -99 -2 -134 11 -15 6 -26 5
-30 -1 -7 -11 9 -32 71 -95 22 -22 53 -55 69 -72 34 -37 48 -34 36 8 -9 32 -6
63 10 106 10 24 12 25 28 11 9 -8 45 -25 79 -36 163 -55 615 -15 897 80 231
77 441 220 568 387 23 31 45 59 48 62 27 27 119 218 142 295 11 39 23 73 27
76 3 4 29 10 56 13 237 27 580 189 735 346 116 116 221 301 262 460 27 104 32
345 9 420 -59 196 -164 347 -306 443 -33 22 -61 41 -63 42 -1 1 11 31 27 66
16 35 31 78 34 94 23 125 27 165 23 256 -8 229 -93 433 -242 582 -131 131
-326 230 -508 258 -68 11 -216 8 -286 -6 -200 -39 -425 -143 -537 -248 -100
-93 -176 -200 -255 -359 -21 -43 -41 -78 -45 -78 -4 0 -16 9 -27 19 -30 28
-146 88 -184 96 l-33 7 58 41 c32 23 69 51 83 62 36 29 184 168 192 180 3 6
21 26 38 45 43 49 131 183 169 258 121 241 148 535 71 772 -28 82 -94 219
-126 255 -13 15 -24 31 -24 34 0 11 -104 116 -155 157 -151 122 -315 182 -515
188 -47 2 -116 -2 -155 -9z"/>
</g>
</svg>
