<svg aria-hidden="true" style="position: absolute; width: 0; height: 0; overflow: hidden;" version="1.1" xmlns="http://www.w3.org/2000/svg" xmlns:xlink="http://www.w3.org/1999/xlink">
<defs>
<symbol id="logo2" viewBox="0 0 122 32">
<path fill="#ed4b5e" style="fill: var(--color1, #ed4b5e)" d="M16.315 17.876v5.361c0 2.599-0.694 4.578-2.082 5.937-1.359 1.359-3.338 2.038-5.937 2.038-3.22 0-5.479-0.99-6.779-2.969-0.235-0.331-0.456-0.709-0.645-1.105l-0.020-0.047c-0.142-0.363-0.265-0.794-0.347-1.239l-0.007-0.045c-0.082-0.439-0.16-1.015-0.215-1.598l-0.007-0.086c-0.028-0.64-0.045-1.39-0.045-2.145 0-0.056 0-0.112 0-0.168l-0 0.009v-12.362c0-1.861 0.162-3.294 0.487-4.298 0.329-1.046 0.948-1.922 1.761-2.561l0.011-0.009c1.477-1.211 3.5-1.817 6.070-1.817 5.169 0 7.754 2.629 7.754 7.887v3.81h-6.38v-3.013c0-1.241-0.118-2.082-0.354-2.526-0.207-0.443-0.635-0.665-1.285-0.665-0.768 0-1.27 0.325-1.506 0.975-0.089 0.236-0.148 0.502-0.177 0.798-0.030 0.266-0.044 0.738-0.044 1.418v12.362c0 0.916 0.015 1.566 0.044 1.95 0.030 0.354 0.118 0.665 0.266 0.93 0.236 0.561 0.694 0.842 1.374 0.842 0.325 0 0.606-0.074 0.842-0.222 0.266-0.177 0.458-0.414 0.576-0.709 0.118-0.236 0.192-0.546 0.222-0.93 0.030-0.414 0.044-1.034 0.044-1.861v-3.943h6.38zM18.524 8.97c0-2.688 0.679-4.726 2.038-6.114 1.358-1.388 3.351-2.082 5.982-2.082 5.376 0 8.064 2.732 8.064 8.197v15.198c0 2.156-0.724 3.87-2.171 5.14s-3.426 1.905-5.937 1.905c-2.481 0-4.431-0.665-5.849-1.994s-2.127-3.146-2.127-5.45v-14.799zM28.272 9.413c0-1.3-0.118-2.171-0.354-2.614-0.236-0.473-0.665-0.709-1.285-0.709-0.679 0-1.152 0.251-1.418 0.753-0.236 0.473-0.354 1.329-0.354 2.57v12.318c0 0.768 0.015 1.329 0.044 1.684 0.030 0.325 0.103 0.62 0.222 0.886 0.266 0.738 0.783 1.108 1.551 1.108 0.65 0 1.093-0.31 1.329-0.93 0.059-0.148 0.103-0.281 0.133-0.399 0.030-0.148 0.059-0.31 0.089-0.487 0.030-0.207 0.044-0.458 0.044-0.753v-13.425zM53.378 30.769h-6.69l-3.365-16.394 0.133 2.082 0.222 2.924c0.030 0.295 0.044 0.65 0.044 1.063 0.030 0.384 0.044 0.827 0.044 1.329v8.994h-6.336v-29.553h6.735l3.412 14.577-0.133-1.994-0.177-2.348c-0.059-0.591-0.103-1.137-0.133-1.639-0.026-0.378-0.042-0.826-0.044-1.278l-0-0.007v-7.311h6.292v29.553zM56.501 1.216h12.894v5.716h-6.514v4.652h6.425v5.627h-6.425v13.558h-6.38v-29.553zM71.289 1.216h13.026v5.76h-6.646v4.608h6.38v5.627h-6.38v7.798h6.912v5.76h-13.292v-29.553zM88.896 7.153h-3.633v-5.937h13.78v5.937h-3.766v23.616h-6.38v-23.616zM102.818 7.153h-3.633v-5.937h13.78v5.937h-3.766v23.616h-6.38v-23.616zM114.57 1.216h6.38v29.553h-6.38v-29.553z"></path>
</symbol>
<symbol id="sms" viewBox="0 0 32 32">
<path stroke-linejoin="round" stroke-linecap="round" stroke-miterlimit="10" stroke-width="2" d="M22.667 27.333h-13.333c-4 0-6.667-2-6.667-6.667v-9.333c0-4.667 2.667-6.667 6.667-6.667h13.333c4 0 6.667 2 6.667 6.667v9.333c0 4.667-2.667 6.667-6.667 6.667z"></path>
<path stroke-linejoin="round" stroke-linecap="round" stroke-miterlimit="10" stroke-width="2" d="M22.667 12l-4.173 3.333c-1.373 1.093-3.627 1.093-5 0l-4.16-3.333"></path>
</symbol>
<symbol id="close" viewBox="0 0 32 32">
<path stroke-linejoin="round" stroke-linecap="round" stroke-miterlimit="4" stroke-width="2" d="M12.227 19.773l7.547-7.547M19.773 19.773l-7.547-7.547M12 29.333h8c6.667 0 9.333-2.667 9.333-9.333v-8c0-6.667-2.667-9.333-9.333-9.333h-8c-6.667 0-9.333 2.667-9.333 9.333v8c0 6.667 2.667 9.333 9.333 9.333z"></path>
</symbol>
<symbol id="call" viewBox="0 0 32 32">
<path stroke-linejoin="miter" stroke-linecap="butt" stroke-miterlimit="10" stroke-width="2" d="M29.293 24.44c0 0.48-0.107 0.973-0.333 1.453s-0.52 0.933-0.907 1.36c-0.653 0.72-1.373 1.24-2.187 1.573-0.8 0.333-1.667 0.507-2.6 0.507-1.36 0-2.813-0.32-4.347-0.973s-3.067-1.533-4.587-2.64c-1.617-1.19-3.045-2.414-4.376-3.736l0.002 0.002c-1.316-1.324-2.536-2.747-3.647-4.255l-0.073-0.105c-1.093-1.52-1.973-3.040-2.613-4.547-0.64-1.52-0.96-2.973-0.96-4.36 0-0.907 0.16-1.773 0.48-2.573 0.32-0.813 0.827-1.56 1.533-2.227 0.853-0.84 1.787-1.253 2.773-1.253 0.373 0 0.747 0.080 1.080 0.24 0.347 0.16 0.653 0.4 0.893 0.747l3.093 4.36c0.24 0.333 0.413 0.64 0.533 0.933 0.12 0.28 0.187 0.56 0.187 0.813 0 0.32-0.093 0.64-0.28 0.947-0.173 0.307-0.427 0.627-0.747 0.947l-1.013 1.053c-0.147 0.147-0.213 0.32-0.213 0.533 0 0.107 0.013 0.2 0.040 0.307 0.040 0.107 0.080 0.187 0.107 0.267 0.24 0.44 0.653 1.013 1.24 1.707 0.6 0.693 1.24 1.4 1.933 2.107 0.72 0.707 1.413 1.36 2.12 1.96 0.693 0.587 1.267 0.987 1.72 1.227 0.067 0.027 0.147 0.067 0.24 0.107 0.107 0.040 0.213 0.053 0.333 0.053 0.227 0 0.4-0.080 0.547-0.227l1.013-1c0.333-0.333 0.653-0.587 0.96-0.747 0.307-0.187 0.613-0.28 0.947-0.28 0.253 0 0.52 0.053 0.813 0.173s0.6 0.293 0.933 0.52l4.413 3.133c0.347 0.24 0.587 0.52 0.733 0.853 0.133 0.333 0.213 0.667 0.213 1.040z"></path>
</symbol>
<symbol id="arrow-right" viewBox="0 0 32 32">
<path stroke-linejoin="round" stroke-linecap="round" stroke-miterlimit="10" stroke-width="2.6667" d="M11.88 26.56l8.693-8.693c1.027-1.027 1.027-2.707 0-3.733l-8.693-8.693"></path>
</symbol>
<symbol id="menu" viewBox="0 0 32 32">
<path stroke-linejoin="round" stroke-linecap="round" stroke-miterlimit="10" stroke-width="2" d="M6.667 13.333h2.667c2.667 0 4-1.333 4-4v-2.667c0-2.667-1.333-4-4-4h-2.667c-2.667 0-4 1.333-4 4v2.667c0 2.667 1.333 4 4 4zM22.667 13.333h2.667c2.667 0 4-1.333 4-4v-2.667c0-2.667-1.333-4-4-4h-2.667c-2.667 0-4 1.333-4 4v2.667c0 2.667 1.333 4 4 4zM22.667 29.333h2.667c2.667 0 4-1.333 4-4v-2.667c0-2.667-1.333-4-4-4h-2.667c-2.667 0-4 1.333-4 4v2.667c0 2.667 1.333 4 4 4zM6.667 29.333h2.667c2.667 0 4-1.333 4-4v-2.667c0-2.667-1.333-4-4-4h-2.667c-2.667 0-4 1.333-4 4v2.667c0 2.667 1.333 4 4 4z"></path>
</symbol>
<symbol id="tag-user" viewBox="0 0 32 32">
<path fill="none" stroke="#ed4b5e" style="stroke: var(--color1, #ed4b5e)" stroke-linejoin="round" stroke-linecap="round" stroke-miterlimit="10" stroke-width="2" d="M24 25.147h-1.013c-1.067 0-2.080 0.413-2.827 1.16l-2.28 2.253c-1.040 1.027-2.733 1.027-3.773 0l-2.28-2.253c-0.747-0.747-1.773-1.16-2.827-1.16h-1c-2.213 0-4-1.773-4-3.96v-14.56c0-2.187 1.787-3.96 4-3.96h16c2.213 0 4 1.773 4 3.96v14.547c0 2.187-1.787 3.973-4 3.973z"></path>
<path fill="none" stroke="#ed4b5e" style="stroke: var(--color1, #ed4b5e)" stroke-linejoin="round" stroke-linecap="round" stroke-miterlimit="4" stroke-width="2" d="M16.093 11.933h-0.2c-1.394-0.048-2.507-1.19-2.507-2.592 0-0.003 0-0.006 0-0.009v0c0-1.44 1.16-2.6 2.6-2.6s2.6 1.173 2.6 2.6c0.013 1.413-1.093 2.56-2.493 2.6zM12.333 15.947c-1.773 1.187-1.773 3.12 0 4.307 2.013 1.347 5.32 1.347 7.333 0 1.773-1.187 1.773-3.12 0-4.307-2.013-1.333-5.307-1.333-7.333 0z"></path>
</symbol>
<symbol id="logo" viewBox="0 0 101 32">
<path fill="#ed4b5e" style="fill: var(--color1, #ed4b5e)" d="M13.824 14.084v4.224c0 2.048-0.547 3.607-1.641 4.678-1.071 1.071-2.63 1.606-4.678 1.606-2.537 0-4.317-0.78-5.341-2.339-0.185-0.261-0.359-0.559-0.508-0.871l-0.016-0.037c-0.112-0.286-0.209-0.626-0.274-0.977l-0.006-0.036c-0.064-0.346-0.126-0.8-0.169-1.259l-0.005-0.068c-0.022-0.504-0.035-1.096-0.035-1.69 0-0.044 0-0.088 0-0.132l-0 0.007v-9.74c0-1.466 0.128-2.595 0.384-3.386 0.259-0.824 0.747-1.515 1.388-2.018l0.009-0.007c1.164-0.954 2.758-1.431 4.783-1.431 4.073 0 6.109 2.071 6.109 6.214v3.002h-5.027v-2.374c0-0.977-0.093-1.641-0.279-1.99-0.163-0.349-0.5-0.524-1.012-0.524-0.605 0-1.001 0.256-1.187 0.768-0.070 0.186-0.116 0.396-0.14 0.628-0.023 0.209-0.035 0.582-0.035 1.117v9.74c0 0.721 0.012 1.233 0.035 1.536 0.023 0.279 0.093 0.524 0.209 0.733 0.186 0.442 0.547 0.663 1.082 0.663 0.256 0 0.477-0.058 0.663-0.175 0.209-0.14 0.361-0.326 0.454-0.559 0.093-0.186 0.151-0.431 0.175-0.733 0.023-0.326 0.035-0.815 0.035-1.466v-3.107h5.027zM15.565 7.067c0-2.118 0.535-3.724 1.606-4.817s2.64-1.641 4.713-1.641c4.236 0 6.353 2.153 6.353 6.458v11.974c0 1.699-0.57 3.049-1.711 4.049s-2.7 1.501-4.678 1.501c-1.955 0-3.491-0.524-4.608-1.571s-1.676-2.479-1.676-4.294v-11.66zM23.245 7.416c0-1.024-0.093-1.711-0.279-2.060-0.186-0.372-0.524-0.559-1.012-0.559-0.535 0-0.908 0.198-1.117 0.593-0.186 0.372-0.279 1.047-0.279 2.025v9.705c0 0.605 0.012 1.047 0.035 1.327 0.023 0.256 0.081 0.489 0.175 0.698 0.209 0.582 0.617 0.873 1.222 0.873 0.512 0 0.861-0.244 1.047-0.733 0.047-0.116 0.081-0.221 0.105-0.314 0.023-0.116 0.047-0.244 0.070-0.384 0.023-0.163 0.035-0.361 0.035-0.593v-10.577zM43.025 24.242h-5.271l-2.651-12.916 0.105 1.641 0.175 2.304c0.023 0.233 0.035 0.512 0.035 0.838 0.023 0.303 0.035 0.652 0.035 1.047v7.087h-4.992v-23.284h5.306l2.688 11.485-0.105-1.571-0.14-1.85c-0.047-0.465-0.081-0.896-0.105-1.292-0.020-0.298-0.033-0.651-0.035-1.007l-0-0.005v-5.76h4.957v23.284zM45.486 0.958h10.159v4.503h-5.133v3.665h5.062v4.433h-5.062v10.682h-5.027v-23.284zM57.136 0.958h10.263v4.538h-5.236v3.631h5.027v4.433h-5.027v6.144h5.446v4.538h-10.473v-23.284zM71.009 5.636h-2.863v-4.678h10.857v4.678h-2.967v18.607h-5.027v-18.607zM81.978 5.636h-2.863v-4.678h10.857v4.678h-2.967v18.607h-5.027v-18.607zM91.237 0.958h5.027v23.284h-5.027v-23.284z"></path>
<path fill="#ed4b5e" style="fill: var(--color1, #ed4b5e)" d="M20.364 3.356h3.879v17.186h-3.879z"></path>
<path fill="none" stroke="#ed4b5e" style="stroke: var(--color1, #ed4b5e)" stroke-linejoin="miter" stroke-linecap="butt" stroke-miterlimit="4" stroke-width="0.9697" d="M22.303 17.939c0 0.795-0.485 6.788 0.485 9.212s1.456 2.924 0 3.879"></path>
<path fill="#ed4b5e" style="fill: var(--color1, #ed4b5e)" d="M23.071 24.473c0 0.736-0.303 1.332-0.677 1.332s-0.677-0.597-0.677-1.332c0-0.736 0.303-1.332 0.677-1.332s0.677 0.597 0.677 1.332z"></path>
<path fill="#ed4b5e" style="fill: var(--color1, #ed4b5e)" d="M23.566 24.139c0.374 0.638 0.415 1.303 0.091 1.487s-0.889-0.184-1.263-0.821c-0.374-0.638-0.415-1.303-0.091-1.487s0.889 0.184 1.263 0.821z"></path>
<path fill="#ed4b5e" style="fill: var(--color1, #ed4b5e)" d="M21.041 24.139c-0.374 0.638-0.415 1.303-0.091 1.487s0.889-0.184 1.263-0.821c0.374-0.638 0.415-1.303 0.091-1.487s-0.889 0.184-1.263 0.821z"></path>
</symbol>
</defs>
</svg>
